<?xml version="1.0" encoding="UTF-8"?>
<svg width="240" height="160" viewBox="0 0 240 160" fill="none" xmlns="http://www.w3.org/2000/svg">
  <rect width="240" height="160" rx="8" fill="#EFF6FF"/>
  
  <!-- Chart background -->
  <rect x="50" y="30" width="140" height="100" rx="4" fill="white" stroke="#3B82F6" stroke-width="2"/>
  
  <!-- Chart grid lines -->
  <line x1="50" y1="50" x2="190" y2="50" stroke="#E5E7EB" stroke-width="1"/>
  <line x1="50" y1="70" x2="190" y2="70" stroke="#E5E7EB" stroke-width="1"/>
  <line x1="50" y1="90" x2="190" y2="90" stroke="#E5E7EB" stroke-width="1"/>
  <line x1="50" y1="110" x2="190" y2="110" stroke="#E5E7EB" stroke-width="1"/>
  
  <!-- Chart bars -->
  <rect x="70" y="60" width="20" height="40" fill="#93C5FD" rx="2"/>
  <rect x="100" y="50" width="20" height="50" fill="#60A5FA" rx="2"/>
  <rect x="130" y="70" width="20" height="30" fill="#3B82F6" rx="2"/>
  <rect x="160" y="40" width="20" height="60" fill="#2563EB" rx="2"/>
  
  <!-- Chart axis -->
  <line x1="50" y1="130" x2="190" y2="130" stroke="#6B7280" stroke-width="2"/>
  <line x1="50" y1="130" x2="50" y2="30" stroke="#6B7280" stroke-width="2"/>
  
  <!-- Export icon -->
  <rect x="150" y="140" width="30" height="10" rx="5" fill="#DBEAFE" stroke="#3B82F6" stroke-width="1"/>
  <path d="M160 136 L165 142 L170 136" stroke="#3B82F6" stroke-width="1.5" stroke-linecap="round" fill="none"/>
  <line x1="165" y1="142" x2="165" y2="134" stroke="#3B82F6" stroke-width="1.5" stroke-linecap="round"/>
</svg>