<svg width="140" height="140" viewBox="0 0 140 140" xmlns="http://www.w3.org/2000/svg">
  <style>
    .form {
      animation: form-float 3s ease-in-out infinite;
    }
    .pencil {
      animation: pencil-write 4s linear infinite;
      transform-origin: 115px 70px;
    }
    .check {
      stroke-dasharray: 30;
      stroke-dashoffset: 30;
      animation: draw-check 3s linear infinite;
    }
    
    @keyframes form-float {
      0%, 100% { transform: translateY(0) rotate(0deg); }
      50% { transform: translateY(-5px) rotate(1deg); }
    }
    @keyframes pencil-write {
      0% { transform: translate(0, 0) rotate(0deg); }
      20% { transform: translate(-20px, 10px) rotate(-10deg); }
      40% { transform: translate(-10px, 20px) rotate(5deg); }
      60% { transform: translate(-30px, 15px) rotate(-5deg); }
      80% { transform: translate(-15px, 25px) rotate(8deg); }
      100% { transform: translate(0, 0) rotate(0deg); }
    }
    @keyframes draw-check {
      0%, 60% { stroke-dashoffset: 30; }
      80%, 100% { stroke-dashoffset: 0; }
    }
  </style>
  
  <!-- Tax Form -->
  <g class="form">
    <rect x="30" y="30" width="80" height="100" fill="#FFFFFF" stroke="#455A64" stroke-width="1"/>
    
    <!-- Form Header -->
    <rect x="30" y="30" width="80" height="15" fill="#455A64"/>
    <text x="70" y="42" font-family="Arial" font-size="10" fill="#FFFFFF" text-anchor="middle">TAX FORM 1040</text>
    
    <!-- Form Lines -->
    <line x1="40" y1="60" x2="100" y2="60" stroke="#78909C" stroke-width="1"/>
    <line x1="40" y1="75" x2="100" y2="75" stroke="#78909C" stroke-width="1"/>
    <line x1="40" y1="90" x2="100" y2="90" stroke="#78909C" stroke-width="1"/>
    <line x1="40" y1="105" x2="100" y2="105" stroke="#78909C" stroke-width="1"/>
    
    <!-- Form Labels -->
    <text x="35" y="58" font-family="Arial" font-size="6" fill="#455A64">Name:</text>
    <text x="35" y="73" font-family="Arial" font-size="6" fill="#455A64">Address:</text>
    <text x="35" y="88" font-family="Arial" font-size="6" fill="#455A64">Income:</text>
    <text x="35" y="103" font-family="Arial" font-size="6" fill="#455A64">Deductions:</text>
    
    <!-- Check Box -->
    <rect x="40" y="115" width="10" height="10" fill="#FFFFFF" stroke="#78909C" stroke-width="1"/>
    <path d="M42 120 L45 123 L48 117" stroke="#43A047" stroke-width="2" fill="none" class="check"/>
    <text x="55" y="123" font-family="Arial" font-size="6" fill="#455A64">I agree to pay my taxes</text>
  </g>
  
  <!-- Pencil -->
  <g class="pencil">
    <polygon points="110,60 120,60 120,80 110,80" fill="#FFC107"/>
    <polygon points="120,60 120,80 125,75 125,65" fill="#FFA000"/>
    <polygon points="110,60 110,80 105,75 105,65" fill="#FFA000"/>
    <polygon points="110,80 120,80 115,85" fill="#E57373"/>
    <rect x="105" y="50" width="20" height="10" fill="#795548"/>
  </g>
</svg>
