<?xml version="1.0" encoding="UTF-8" standalone="no"?>
<svg width="150" height="150" viewBox="0 0 150 150" xmlns="http://www.w3.org/2000/svg">
  <!-- Circular background -->
  <circle cx="75" cy="75" r="70" fill="#ffffff" stroke="#006699" stroke-width="5"/>
  
  <!-- Blue water/river -->
  <path d="M 15,75 C 30,60 45,80 60,65 C 75,50 90,70 105,55 C 120,40 135,60 150,45 L 150,85 C 135,100 120,80 105,95 C 90,110 75,90 60,105 C 45,120 30,100 15,115 Z" fill="#006699"/>
  
  <!-- Green hills -->
  <path d="M 15,85 C 30,70 45,90 60,75 C 75,60 90,80 105,65 C 120,50 135,70 150,55 L 150,120 C 135,105 120,125 105,110 C 90,95 75,115 60,100 C 45,85 30,105 15,90 Z" fill="#5CB85C"/>
  
  <!-- Text "BENTON COUNTY" -->
  <text x="75" y="45" font-family="Arial, sans-serif" font-size="14" font-weight="bold" text-anchor="middle" fill="#006699">BENTON COUNTY</text>
  
  <!-- Text "WASHINGTON" -->
  <text x="75" y="115" font-family="Arial, sans-serif" font-size="12" font-weight="bold" text-anchor="middle" fill="#006699">WASHINGTON</text>
  
  <!-- Established text -->
  <text x="75" y="130" font-family="Arial, sans-serif" font-size="8" text-anchor="middle" fill="#006699">EST. 1905</text>
</svg>