<?xml version="1.0" encoding="UTF-8"?>
<svg width="200" height="200" viewBox="0 0 200 200" xmlns="http://www.w3.org/2000/svg">
  <defs>
    <!-- Main background gradient -->
    <linearGradient id="bgGradient" x1="0%" y1="0%" x2="100%" y2="100%">
      <stop offset="0%" style="stop-color:#001828;stop-opacity:1" />
      <stop offset="100%" style="stop-color:#002842;stop-opacity:1" />
    </linearGradient>
    
    <!-- Inner box gradient -->
    <linearGradient id="innerGradient" x1="0%" y1="0%" x2="100%" y2="100%">
      <stop offset="0%" style="stop-color:#002842;stop-opacity:1" />
      <stop offset="100%" style="stop-color:#00405E;stop-opacity:1" />
    </linearGradient>
    
    <!-- TF logo gradient -->
    <linearGradient id="logoGradient" x1="0%" y1="0%" x2="100%" y2="100%">
      <stop offset="0%" style="stop-color:#00BFD6;stop-opacity:1" />
      <stop offset="100%" style="stop-color:#00E3A1;stop-opacity:1" />
    </linearGradient>
    
    <!-- Edge lighting gradient -->
    <linearGradient id="edgeGradient" x1="0%" y1="0%" x2="100%" y2="0%">
      <stop offset="0%" style="stop-color:#7FFFEA;stop-opacity:0.8" />
      <stop offset="100%" style="stop-color:#7FFFEA;stop-opacity:0" />
    </linearGradient>
    
    <!-- Glow filter -->
    <filter id="glow" x="-20%" y="-20%" width="140%" height="140%">
      <feGaussianBlur stdDeviation="4" result="blur" />
      <feComposite in="SourceGraphic" in2="blur" operator="over" />
    </filter>
    
    <!-- 3D effect filters -->
    <filter id="bevel" x="-10%" y="-10%" width="120%" height="120%">
      <feGaussianBlur in="SourceAlpha" stdDeviation="1" result="blur" />
      <feSpecularLighting in="blur" surfaceScale="5" specularConstant="1" specularExponent="30" lighting-color="#7FFFEA" result="specOut">
        <fePointLight x="50" y="50" z="120" />
      </feSpecularLighting>
      <feComposite in="specOut" in2="SourceAlpha" operator="in" result="specOut" />
      <feComposite in="SourceGraphic" in2="specOut" operator="arithmetic" k1="0" k2="1" k3="1" k4="0" />
    </filter>
    
    <!-- Drop shadow -->
    <filter id="shadow" x="-20%" y="-20%" width="140%" height="140%">
      <feDropShadow dx="0" dy="0" stdDeviation="5" flood-color="#000" flood-opacity="0.5" />
    </filter>
  </defs>
  
  <!-- Background Rounded Rectangle with shadow -->
  <rect x="10" y="10" width="180" height="180" rx="30" ry="30" fill="url(#bgGradient)" filter="url(#shadow)" />
  
  <!-- Inner glow effect around border -->
  <rect x="15" y="15" width="170" height="170" rx="25" ry="25" fill="none" stroke="#00BFD6" stroke-width="1" stroke-opacity="0.4" filter="url(#glow)" />
  
  <!-- Inner box with gradient -->
  <rect x="35" y="35" width="130" height="130" rx="20" ry="20" fill="url(#innerGradient)" />
  
  <!-- TF Logo - T component with 3D effect -->
  <path d="M55,55 L145,55 C145,55 145,73 145,73 L110,73 L110,145 L90,145 L90,73 L55,73 Z" 
        fill="url(#logoGradient)" filter="url(#bevel)" />
  
  <!-- TF Logo - F component with 3D effect -->
  <path d="M110,90 L145,90 C145,90 145,108 145,108 L110,108 Z" 
        fill="url(#logoGradient)" filter="url(#bevel)" />
  
  <!-- Top edge highlight -->
  <path d="M55,55 L145,55 C145,55 145,58 145,58 L55,58 Z" 
        fill="url(#edgeGradient)" />
  
  <!-- Left edge highlights -->
  <path d="M55,55 L58,55 L58,73 L55,73 Z" 
        fill="url(#edgeGradient)" />
  
  <!-- F top edge highlight -->
  <path d="M110,90 L145,90 C145,90 145,93 145,93 L110,93 Z" 
        fill="url(#edgeGradient)" />
</svg>