<svg xmlns="http://www.w3.org/2000/svg" width="192" height="192" viewBox="0 0 192 192">
  <defs>
    <linearGradient id="grad1" x1="0%" y1="0%" x2="100%" y2="100%">
      <stop offset="0%" style="stop-color:#0d6efd;stop-opacity:1" />
      <stop offset="100%" style="stop-color:#0a58ca;stop-opacity:1" />
    </linearGradient>
  </defs>
  <rect width="192" height="192" rx="42" fill="url(#grad1)"/>
  <g transform="translate(46, 45)">
    <!-- Map pin -->
    <path d="M50,10 C63.8,10 75,21.2 75,35 C75,56.25 50,90 50,90 C50,90 25,56.25 25,35 C25,21.2 36.2,10 50,10 Z" fill="#ffffff"/>
    <circle cx="50" cy="35" r="12" fill="#0d6efd"/>
    
    <!-- Building silhouette -->
    <rect x="38" y="70" width="25" height="20" fill="#ffffff"/>
    <rect x="40" y="60" width="5" height="10" fill="#ffffff"/>
    <rect x="55" y="60" width="5" height="10" fill="#ffffff"/>
    <rect x="47.5" y="45" width="5" height="25" fill="#ffffff"/>
    <rect x="42" y="72" width="5" height="9" fill="#0d6efd"/>
    <rect x="53" y="72" width="5" height="9" fill="#0d6efd"/>
  </g>
  
  <!-- Grid/chart lines -->
  <line x1="35" y1="145" x2="155" y2="145" stroke="#ffffff" stroke-width="3"/>
  <line x1="40" y1="135" x2="40" y2="145" stroke="#ffffff" stroke-width="3"/>
  <line x1="60" y1="125" x2="60" y2="145" stroke="#ffffff" stroke-width="3"/>
  <line x1="80" y1="115" x2="80" y2="145" stroke="#ffffff" stroke-width="3"/>
  <line x1="100" y1="130" x2="100" y2="145" stroke="#ffffff" stroke-width="3"/>
  <line x1="120" y1="120" x2="120" y2="145" stroke="#ffffff" stroke-width="3"/>
  <line x1="140" y1="110" x2="140" y2="145" stroke="#ffffff" stroke-width="3"/>
</svg>