<svg xmlns="http://www.w3.org/2000/svg" width="192" height="192" viewBox="0 0 192 192">
  <defs>
    <linearGradient id="grad1" x1="0%" y1="0%" x2="100%" y2="100%">
      <stop offset="0%" style="stop-color:#0d6efd;stop-opacity:1" />
      <stop offset="100%" style="stop-color:#0a58ca;stop-opacity:1" />
    </linearGradient>
  </defs>
  <rect width="192" height="192" rx="42" fill="url(#grad1)"/>
  
  <!-- Map icon -->
  <g transform="translate(40, 40)">
    <!-- Map outline -->
    <path d="M0,0 L0,110 L110,110 L110,0 Z" fill="none" stroke="#ffffff" stroke-width="3"/>
    
    <!-- Map roads -->
    <path d="M20,20 L90,20 M20,50 L90,50 M20,80 L90,80 M35,10 L35,100 M65,10 L65,100" 
          stroke="#ffffff" stroke-width="2" stroke-opacity="0.7"/>
    
    <!-- Property outlines -->
    <rect x="25" y="25" width="20" height="15" fill="none" stroke="#ffffff" stroke-width="2"/>
    <rect x="55" y="25" width="15" height="15" fill="none" stroke="#ffffff" stroke-width="2"/>
    <rect x="75" y="25" width="15" height="15" fill="none" stroke="#ffffff" stroke-width="2"/>
    <rect x="25" y="60" width="20" height="15" fill="none" stroke="#ffffff" stroke-width="2"/>
    <rect x="75" y="60" width="15" height="15" fill="none" stroke="#ffffff" stroke-width="2"/>
    
    <!-- Highlighted property -->
    <rect x="50" y="60" width="20" height="15" fill="#ffffff"/>
    
    <!-- Map pin -->
    <path d="M50,50 C55,50 60,55 60,60 C60,68 50,80 50,80 C50,80 40,68 40,60 C40,55 45,50 50,50 Z" 
          fill="#ffffff"/>
    <circle cx="50" cy="60" r="5" fill="#0d6efd"/>
  </g>
</svg>